<svg version="1.2" xmlns="http://www.w3.org/2000/svg" viewBox="0 0 88 82" width="88" height="82"><style>tspan{white-space:pre}.a{font-size: 5px;fill: #000000;font-family: "Arbeit  Regular"}</style><path  d="m32.3 41.8h4.7v4.7h-4.7z"/><path  d="m32.3 54.3h4.7v4.7h-4.7z"/><path  d="m32.3 29.3h4.7v4.7h-4.7z"/><path  d="m26 29.3h4.7v4.7h-4.7z"/><path  d="m32.3 35.5h4.7v4.7h-4.7z"/><path  d="m26 54.3h4.7v4.7h-4.7z"/><path  d="m26 41.8h4.7v4.7h-4.7z"/><path  d="m26 48h4.7v4.7h-4.7z"/><path  d="m44.8 41.8h4.7v4.7h-4.7z"/><path  d="m44.8 35.5h4.7v4.7h-4.7z"/><path  d="m44.8 29.3h4.7v4.7h-4.7z"/><path  d="m38.5 54.3h4.7v4.7h-4.7z"/><path  d="m44.8 48h4.7v4.7h-4.7z"/><path  d="m38.5 29.3h4.7v4.7h-4.7z"/><path  d="m38.5 48h4.7v4.7h-4.7z"/><path  d="m38.5 35.5h4.7v4.7h-4.7z"/><path  d="m38.5 41.8h4.7v4.7h-4.7z"/><path  d="m74 50.1h6.7v2.6h-6.7z"/><path  d="m74 46h6.7v2.6h-6.7z"/><path  d="m44.8 54.3h4.7v4.7h-4.7z"/><path  d="m26 35.5h4.7v4.7h-4.7z"/><path  d="m74 41.8h6.7v2.6h-6.7z"/><path  d="m74 29.3h6.7v2.6h-6.7z"/><path fill-rule="evenodd" d="m69.8 24.1h15.1v50.5h-15.1zm2.6 33.6c0 0.4 0.3 0.8 0.8 0.8h8.3c0.4 0 0.8-0.4 0.8-0.8v-29.2c0-0.4-0.4-0.8-0.8-0.8h-8.3c-0.5 0-0.8 0.4-0.8 0.8z"/><path  d="m74 37.6h6.7v2.6h-6.7z"/><path  d="m18.2 15c0-0.5 0.4-0.8 0.8-0.8h50c0.4 0 0.8 0.3 0.8 0.8v7.5h16.9l-5.8-19.3h-73.8l-5.8 19.3h16.9z"/><path  d="m74 33.5h6.7v2.6h-6.7z"/><path  d="m74 54.3h6.7v2.6h-6.7z"/><path  d="m68.2 74.6v-14.1h-48.4v14.1h14v-11.7c0-0.5 0.4-0.8 0.8-0.8h18.8c0.4 0 0.8 0.3 0.8 0.8v11.7z"/><path  d="m19.8 41.8h4.7v4.7h-4.7z"/><path  d="m19.8 54.3h4.7v4.7h-4.7z"/><path  d="m19.8 29.3h4.7v4.7h-4.7z"/><path  d="m19.8 48h4.7v4.7h-4.7z"/><path  d="m44.8 63.7v10.9h7.8v-10.9z"/><path  d="m19.8 35.5h4.7v4.7h-4.7z"/><path  d="m35.4 63.7v10.9h7.8v-10.9z"/><path  d="m32.3 48h4.7v4.7h-4.7z"/><path  d="m63.6 21.4l-0.2-0.3-0.2 0.3c-0.1 0.2-0.3 0.4-0.6 0.4l-0.4 0.1 0.3 0.2c0.2 0.2 0.3 0.5 0.2 0.7v0.4l0.3-0.2q0.2-0.1 0.4-0.1 0.2 0 0.3 0.1l0.3 0.2v-0.4c-0.1-0.2 0-0.5 0.2-0.7l0.3-0.2-0.4-0.1c-0.2 0-0.4-0.2-0.5-0.4z"/><path  d="m7.3 33.5h6.7v2.6h-6.7z"/><path  d="m7.3 29.3h6.7v2.6h-6.7z"/><path  d="m24.8 21.4l-0.2-0.3-0.2 0.3c-0.1 0.2-0.3 0.4-0.6 0.4l-0.3 0.1 0.2 0.2c0.2 0.2 0.3 0.5 0.2 0.7v0.4l0.3-0.2q0.2-0.1 0.4-0.1 0.2 0 0.3 0.1l0.4 0.2-0.1-0.4c-0.1-0.2 0-0.5 0.2-0.7l0.3-0.2-0.4-0.1c-0.2 0-0.4-0.2-0.5-0.4z"/><path  d="m34.5 21.4l-0.2-0.3-0.2 0.3c-0.1 0.2-0.3 0.4-0.6 0.4l-0.3 0.1 0.2 0.2c0.2 0.2 0.3 0.5 0.2 0.7v0.4l0.3-0.2q0.2-0.1 0.4-0.1 0.2 0 0.3 0.1l0.4 0.2-0.1-0.4c-0.1-0.2 0-0.5 0.2-0.7l0.3-0.2-0.4-0.1c-0.2 0-0.4-0.2-0.5-0.4z"/><path  d="m44.2 21.4l-0.2-0.3-0.2 0.3c-0.1 0.2-0.3 0.4-0.6 0.4l-0.3 0.1 0.2 0.2c0.2 0.2 0.3 0.5 0.2 0.7v0.4l0.3-0.2q0.2-0.1 0.4-0.1 0.2 0 0.3 0.1l0.4 0.2-0.1-0.4c-0.1-0.2 0-0.5 0.2-0.7l0.3-0.2-0.4-0.1c-0.2 0-0.4-0.2-0.5-0.4z"/><path  d="m53.9 21.4l-0.2-0.3-0.2 0.3c-0.1 0.2-0.3 0.4-0.6 0.4l-0.4 0.1 0.3 0.2c0.2 0.2 0.3 0.5 0.2 0.7v0.4l0.3-0.2q0.2-0.1 0.4-0.1 0.1 0 0.3 0.1l0.3 0.2v-0.4c-0.1-0.2 0-0.5 0.2-0.7l0.3-0.2-0.4-0.1c-0.2 0-0.4-0.2-0.5-0.4z"/><path fill-rule="evenodd" d="m68.2 27.7h-48.4v-11.9h48.4zm-40.1-6.7c-0.1-0.2-0.3-0.4-0.6-0.5l-1.5-0.2-0.7-1.4c-0.3-0.5-1.1-0.5-1.4 0l-0.7 1.4-1.5 0.2c-0.3 0.1-0.6 0.3-0.7 0.5 0 0.3 0 0.6 0.2 0.8l1.2 1.1-0.3 1.5c-0.1 0.3 0.1 0.6 0.3 0.8 0.1 0.1 0.3 0.2 0.5 0.2q0.2 0 0.3-0.1l1.4-0.8 1.4 0.8c0.2 0.1 0.6 0.1 0.8-0.1 0.2-0.2 0.4-0.5 0.3-0.8l-0.3-1.5 1.2-1.1c0.2-0.2 0.2-0.5 0.1-0.8zm9.7 0c-0.1-0.2-0.3-0.4-0.6-0.5l-1.5-0.2-0.7-1.4c-0.3-0.5-1.2-0.5-1.4 0l-0.7 1.4-1.5 0.2c-0.3 0.1-0.6 0.3-0.7 0.5-0.1 0.3 0 0.6 0.2 0.8l1.1 1.1-0.2 1.5c-0.1 0.3 0.1 0.6 0.3 0.8 0.2 0.2 0.6 0.2 0.8 0.1l1.4-0.7 1.4 0.7q0.1 0.1 0.3 0.1 0.3 0 0.5-0.2c0.2-0.2 0.3-0.5 0.3-0.8l-0.3-1.5 1.1-1.1c0.3-0.2 0.3-0.5 0.2-0.8zm9.7 0c-0.1-0.2-0.3-0.4-0.6-0.5l-1.5-0.2-0.7-1.4c-0.2-0.3-0.4-0.4-0.7-0.4-0.3 0-0.6 0.1-0.7 0.4l-0.7 1.4-1.5 0.2c-0.3 0.1-0.6 0.3-0.7 0.5-0.1 0.3 0 0.6 0.2 0.8l1.1 1.1-0.2 1.5c-0.1 0.3 0.1 0.6 0.3 0.8 0.2 0.2 0.6 0.2 0.8 0.1l1.4-0.8 1.4 0.8q0.1 0.1 0.3 0.1 0.3 0 0.5-0.2c0.2-0.2 0.3-0.5 0.3-0.8l-0.3-1.5 1.1-1.1c0.3-0.2 0.3-0.5 0.2-0.8zm9.7 0c-0.1-0.3-0.3-0.5-0.6-0.5l-1.5-0.2-0.7-1.4c-0.3-0.5-1.2-0.5-1.4 0l-0.7 1.4-1.5 0.2c-0.3 0-0.6 0.2-0.7 0.5-0.1 0.3 0 0.6 0.2 0.8l1.2 1.1-0.3 1.5c-0.1 0.3 0.1 0.6 0.3 0.8 0.1 0.1 0.3 0.2 0.5 0.2q0.1 0 0.3-0.1l1.4-0.8 1.4 0.8c0.2 0.1 0.6 0.1 0.8-0.1 0.2-0.2 0.3-0.5 0.3-0.8l-0.3-1.5 1.1-1.1c0.3-0.2 0.3-0.5 0.2-0.8zm9.7 0c-0.1-0.2-0.3-0.4-0.6-0.5l-1.5-0.2-0.7-1.4c-0.3-0.5-1.2-0.5-1.4 0l-0.7 1.4-1.5 0.2c-0.3 0.1-0.6 0.3-0.7 0.5-0.1 0.3 0 0.6 0.2 0.8l1.1 1.1-0.2 1.5c-0.1 0.3 0.1 0.6 0.3 0.8 0.2 0.2 0.5 0.2 0.8 0.1l1.4-0.7 1.4 0.7q0.1 0.1 0.3 0.1 0.3 0 0.5-0.2c0.2-0.2 0.3-0.5 0.3-0.8l-0.3-1.5 1.1-1.1c0.3-0.2 0.3-0.5 0.2-0.8z"/><path  d="m7.3 37.6h6.7v2.6h-6.7z"/><path  d="m7.3 54.3h6.7v2.6h-6.7z"/><path  d="m87 76.2h-86v2.6h86z"/><path fill-rule="evenodd" d="m3.1 74.6v-50.5h15.1v50.5zm2.6-16.9c0 0.4 0.4 0.8 0.8 0.8h8.3c0.5 0 0.8-0.4 0.8-0.8v-29.2c0-0.4-0.3-0.8-0.8-0.8h-8.3c-0.4 0-0.8 0.4-0.8 0.8z"/><path  d="m7.3 41.8h6.7v2.6h-6.7z"/><path  d="m7.3 46h6.7v2.6h-6.7z"/><path  d="m7.3 50.1h6.7v2.6h-6.7z"/><path  d="m63.5 54.3h4.7v4.7h-4.7z"/><path  d="m57.3 54.3h4.7v4.7h-4.7z"/><path  d="m57.3 48h4.7v4.7h-4.7z"/><path  d="m51 35.5h4.7v4.7h-4.7z"/><path  d="m63.5 48h4.7v4.7h-4.7z"/><path  d="m51 29.3h4.7v4.7h-4.7z"/><path  d="m57.3 35.5h4.7v4.7h-4.7z"/><path  d="m57.3 41.8h4.7v4.7h-4.7z"/><path  d="m57.3 29.3h4.7v4.7h-4.7z"/><path  d="m51 41.8h4.7v4.7h-4.7z"/><path  d="m63.5 29.3h4.7v4.7h-4.7z"/><path  d="m51 48h4.7v4.7h-4.7z"/><path  d="m63.5 35.5h4.7v4.7h-4.7z"/><path  d="m63.5 41.8h4.7v4.7h-4.7z"/><path  d="m51 54.3h4.7v4.7h-4.7z"/><text style="transform:matrix(1,0,0,1,-6,108.5)" ><tspan x="0" y="0" class="a">Created by Buildhouse10
</tspan></text><text style="transform:matrix(1,0,0,1,-6,113.5)" ><tspan x="0" y="0" class="a">from Noun Project
</tspan></text></svg>